<?xml version="1.0" standalone="no"?>
<!DOCTYPE svg PUBLIC "-//W3C//DTD SVG 20010904//EN"
 "http://www.w3.org/TR/2001/REC-SVG-20010904/DTD/svg10.dtd">
<svg version="1.0" xmlns="http://www.w3.org/2000/svg"
 width="500.000000pt" height="500.000000pt" viewBox="0 0 500.000000 500.000000"
 preserveAspectRatio="xMidYMid meet">

<g transform="translate(0.000000,500.000000) scale(0.100000,-0.100000)"
fill="#000000" stroke="none">
<path d="M2240 4584 c-14 -2 -70 -11 -125 -20 -181 -28 -352 -82 -530 -168
-607 -291 -1028 -868 -1120 -1534 -19 -145 -19 -400 1 -543 122 -879 780
-1551 1674 -1711 102 -18 518 -18 620 0 666 119 1208 521 1490 1106 139 287
200 557 200 881 0 896 -595 1681 -1460 1925 -169 48 -276 61 -505 65 -121 2
-231 1 -245 -1z m515 -64 c228 -32 486 -124 685 -242 563 -336 916 -909 959
-1555 69 -1024 -654 -1917 -1674 -2068 -145 -22 -405 -22 -550 0 -653 97
-1200 497 -1485 1087 -405 839 -160 1852 585 2413 420 316 931 442 1480 365z"/>
<path d="M2426 4431 c-4 -5 2 -15 13 -21 18 -9 19 -18 15 -103 -7 -121 -10
-134 -35 -140 -12 -3 -18 -10 -14 -16 8 -14 135 -15 135 -1 0 6 -7 10 -15 10
-11 0 -15 12 -15 44 0 25 4 47 9 50 5 3 25 -16 45 -44 25 -35 32 -50 21 -50
-8 0 -15 -7 -15 -15 0 -12 14 -15 70 -15 39 0 70 4 70 9 0 5 -7 11 -15 13 -8
2 -39 37 -69 78 l-54 75 46 42 c26 23 55 45 65 48 31 11 18 23 -30 27 -56 5
-72 0 -50 -17 14 -10 10 -18 -33 -60 l-50 -49 0 51 c0 43 3 53 20 58 36 12 21
25 -29 25 -27 0 -56 3 -64 6 -8 3 -18 1 -21 -5z"/>
<path d="M2174 4401 c-36 -22 -49 -58 -34 -95 12 -32 42 -52 103 -67 59 -14
76 -40 47 -69 -11 -11 -33 -20 -50 -20 -29 0 -70 29 -70 50 0 6 -7 10 -16 10
-10 0 -14 -6 -10 -17 2 -10 8 -33 11 -51 5 -24 10 -31 17 -24 6 6 24 8 39 5
106 -21 191 76 125 142 -13 13 -47 31 -76 39 -78 23 -94 40 -64 70 22 23 48
20 84 -10 36 -31 43 -28 35 17 -6 33 -8 34 -58 36 -37 2 -62 -3 -83 -16z"/>
<path d="M2790 4394 c0 -4 7 -12 16 -18 14 -11 13 -23 -13 -121 -25 -97 -31
-110 -51 -113 -48 -7 -12 -27 98 -55 62 -15 118 -26 125 -24 14 6 36 75 26 82
-5 2 -18 -7 -30 -21 -20 -23 -28 -25 -64 -20 -58 10 -70 22 -62 65 4 20 10 41
13 47 11 19 51 -2 64 -33 l11 -28 13 40 c15 48 17 85 5 85 -5 0 -11 -7 -15
-15 -3 -9 -18 -15 -36 -15 -34 0 -34 -3 -19 56 11 41 14 45 35 40 48 -12 75
-26 79 -41 3 -8 7 -23 10 -32 8 -24 23 -4 27 36 l3 34 -110 28 c-120 31 -125
32 -125 23z"/>
<path d="M1958 4363 c-46 -13 -65 -33 -33 -33 20 0 28 -19 56 -127 17 -67 20
-96 12 -104 -21 -21 -68 -17 -132 12 -61 28 -63 30 -48 47 23 25 22 85 -1 105
-10 10 -34 17 -53 17 -40 0 -190 -60 -185 -75 2 -5 11 -9 20 -7 12 2 28 -22
61 -93 44 -95 55 -135 35 -135 -5 0 -10 -4 -10 -10 0 -16 18 -12 81 16 59 27
80 52 34 40 -21 -5 -27 -1 -45 35 -12 22 -19 44 -15 47 4 4 38 -10 77 -30 l70
-36 45 19 c25 10 52 19 62 19 29 0 121 30 121 40 0 5 -10 10 -22 12 -19 3 -26
18 -51 112 -26 99 -27 111 -13 122 38 27 9 30 -66 7z m-190 -171 c3 -25 -2
-34 -26 -46 l-29 -15 -22 46 c-24 51 -25 48 9 62 34 13 64 -8 68 -47z"/>
<path d="M3130 4292 c0 -4 5 -13 10 -18 7 -7 -5 -43 -37 -112 -40 -88 -50
-102 -71 -102 -45 0 -16 -23 96 -76 l113 -53 19 32 c32 53 22 78 -15 37 -10
-11 -23 -20 -28 -20 -23 0 -97 43 -97 55 0 8 20 57 45 110 39 84 47 96 65 90
40 -13 19 15 -30 40 -51 26 -70 31 -70 17z"/>
<path d="M1371 4083 l-121 -86 20 -31 c27 -43 40 -44 33 -3 -4 30 -1 37 27 57
17 12 32 21 34 19 112 -152 128 -181 117 -206 -7 -14 -10 -28 -7 -30 8 -8 126
80 126 94 0 11 -5 11 -21 3 -15 -9 -24 -8 -35 1 -19 16 -124 164 -124 176 0 5
14 17 30 27 29 16 33 16 55 2 13 -9 27 -16 30 -16 12 0 3 24 -19 51 l-24 28
-121 -86z"/>
<path d="M3436 4141 c-4 -5 -2 -12 4 -16 17 -10 13 -18 -56 -114 -58 -81 -68
-90 -90 -85 -13 3 -24 2 -24 -3 0 -10 195 -153 208 -153 16 0 54 62 45 71 -6
6 -15 4 -23 -6 -17 -20 -38 -19 -78 5 -45 28 -48 44 -17 91 26 40 27 40 46 23
13 -12 19 -27 16 -41 -2 -13 -1 -26 3 -28 8 -5 70 72 70 86 0 4 -15 5 -33 2
-51 -8 -63 14 -30 60 14 20 29 37 33 37 3 0 23 -15 43 -34 31 -28 37 -39 31
-60 -8 -35 9 -33 35 3 l21 29 -87 64 c-109 80 -110 80 -117 69z"/>
<path d="M2289 3936 c-2 -3 -33 -7 -69 -11 -36 -4 -94 -15 -130 -26 -36 -11
-83 -25 -105 -31 -22 -6 -47 -13 -55 -16 -8 -3 -19 -6 -25 -7 -13 -1 -206
-105 -221 -119 -7 -6 -25 -20 -40 -31 -16 -11 -44 -34 -64 -50 -19 -17 -61
-50 -93 -74 -32 -24 -81 -72 -109 -105 -27 -34 -54 -62 -59 -64 -5 -2 -9 -10
-9 -17 0 -7 -4 -15 -9 -17 -31 -12 -223 -377 -234 -445 -3 -18 -8 -36 -11 -41
-29 -47 -27 -634 2 -688 6 -10 22 -64 36 -119 17 -65 49 -146 92 -231 64 -128
93 -170 182 -260 23 -24 42 -47 43 -51 1 -10 140 -132 217 -191 32 -24 109
-69 172 -99 63 -30 122 -59 130 -64 34 -21 66 -30 188 -54 222 -44 299 -50
462 -31 103 12 168 25 230 47 47 17 119 42 160 55 200 66 383 200 583 425 115
131 180 231 211 325 16 49 33 97 37 106 27 55 53 232 57 393 5 211 -11 331
-72 550 -29 102 -97 270 -115 285 -4 3 -11 16 -18 30 -33 75 -228 275 -343
353 -25 17 -58 42 -75 55 -16 14 -51 35 -76 46 -25 12 -69 36 -97 55 -71 46
-247 101 -357 111 -91 10 -408 14 -416 6z m342 -26 c30 -5 70 -12 89 -14 98
-12 176 -40 340 -120 182 -89 352 -231 479 -402 25 -32 62 -81 82 -109 49 -65
85 -137 104 -211 81 -296 98 -399 97 -590 0 -83 -5 -168 -11 -190 -6 -21 -11
-53 -11 -69 0 -26 -27 -102 -96 -275 -21 -52 -95 -166 -170 -260 -131 -167
-360 -338 -543 -407 -36 -13 -70 -28 -76 -32 -36 -28 -249 -73 -412 -86 -120
-11 -315 11 -458 49 -69 19 -297 128 -382 182 -73 47 -267 245 -332 338 -55
81 -170 296 -182 341 -4 17 -15 55 -24 85 -46 155 -48 171 -49 394 -2 197 0
228 21 310 12 50 27 99 33 108 5 10 10 22 10 28 0 32 117 246 197 360 29 43
178 194 253 258 83 70 363 223 465 254 184 55 446 82 576 58z"/>
<path d="M2370 3840 c0 -5 9 -10 19 -10 11 0 23 5 26 10 4 6 -5 10 -19 10 -14
0 -26 -4 -26 -10z"/>
<path d="M2430 3840 c0 -5 9 -10 20 -10 11 0 20 5 20 10 0 6 -9 10 -20 10 -11
0 -20 -4 -20 -10z"/>
<path d="M2260 3830 c-140 -24 -365 -105 -477 -173 -79 -48 -63 -53 25 -8 142
73 331 138 467 162 74 13 110 30 60 28 -17 -1 -50 -5 -75 -9z"/>
<path d="M2580 3830 c8 -5 35 -9 60 -9 34 0 40 2 25 9 -29 13 -104 13 -85 0z"/>
<path d="M2696 3821 c-3 -4 33 -16 79 -25 47 -9 110 -26 141 -36 65 -23 72
-24 58 -10 -14 14 -121 50 -179 60 -27 5 -60 12 -72 15 -12 3 -24 1 -27 -4z"/>
<path d="M2341 3779 c-35 -4 -98 -18 -140 -30 -42 -12 -107 -31 -146 -42 -38
-11 -81 -26 -95 -33 -14 -7 -41 -20 -60 -28 -48 -21 -107 -56 -178 -108 -33
-24 -68 -48 -78 -54 -11 -7 -16 -15 -12 -19 7 -7 70 32 76 47 2 4 8 8 12 8 5
0 28 13 52 29 133 88 284 147 518 201 81 18 119 21 243 18 141 -3 182 3 116
16 -42 8 -229 5 -308 -5z"/>
<path d="M2720 3760 c20 -13 43 -13 35 0 -3 6 -16 10 -28 10 -18 0 -19 -2 -7
-10z"/>
<path d="M2840 3731 c0 -4 24 -15 53 -26 97 -34 221 -103 282 -156 11 -10 51
-44 89 -75 77 -65 212 -222 257 -300 25 -45 91 -194 89 -202 0 -1 9 -24 20
-50 61 -137 86 -536 42 -687 -71 -250 -173 -431 -326 -578 -50 -49 -111 -103
-136 -120 -132 -90 -162 -108 -245 -142 -120 -50 -186 -70 -270 -84 -38 -7
-99 -17 -135 -23 -111 -19 -248 -11 -373 23 -62 16 -118 30 -124 31 -25 3 -12
15 45 41 91 42 281 145 357 195 100 65 315 172 345 172 44 1 109 37 121 67 7
17 9 63 5 119 -3 50 -1 107 4 125 6 19 13 54 16 79 3 25 8 47 9 50 2 3 6 48
10 100 3 52 8 110 11 128 6 36 -12 102 -27 102 -5 0 -9 6 -9 13 0 6 -9 23 -20
37 -11 14 -20 33 -20 42 0 35 -86 174 -141 229 l-55 57 62 6 c123 13 236 67
313 152 59 63 97 127 116 192 9 32 21 72 26 90 12 37 14 32 -63 123 -43 51
-55 59 -112 74 -50 14 -89 17 -168 13 -88 -4 -113 -10 -171 -36 -149 -68 -247
-224 -247 -394 l0 -68 -48 34 c-26 19 -59 37 -74 41 -22 6 -27 3 -30 -17 -2
-17 -8 -22 -23 -20 -11 2 -56 6 -100 9 -128 8 -205 -33 -293 -157 -25 -36 -54
-74 -64 -84 -10 -11 -18 -25 -18 -31 0 -26 41 -88 87 -130 99 -89 101 -90 180
-90 71 0 72 0 58 -22 -21 -32 -33 -126 -28 -233 l4 -95 -58 -41 c-76 -53 -128
-130 -169 -251 -39 -117 -54 -134 -195 -228 -57 -38 -107 -73 -110 -78 -10
-13 -96 93 -217 268 -39 56 -127 248 -147 320 -10 38 -19 118 -22 218 -3 87
-8 155 -11 153 -12 -12 -20 -187 -12 -258 16 -141 102 -357 203 -510 49 -75
200 -258 220 -267 5 -2 31 -24 59 -50 67 -61 228 -170 303 -203 33 -15 87 -31
120 -37 33 -6 110 -20 171 -31 109 -21 203 -22 359 -4 83 9 316 74 378 105 33
16 64 26 70 22 27 -17 -165 -90 -331 -125 -92 -20 -136 -23 -307 -23 -226 1
-268 9 -484 89 -137 51 -173 71 -266 145 -187 149 -349 354 -446 565 -42 92
-69 126 -54 69 18 -72 172 -353 194 -353 4 0 12 -10 18 -23 6 -12 31 -45 57
-73 25 -29 46 -57 46 -63 0 -5 9 -15 20 -21 12 -6 17 -16 13 -26 -4 -10 -1
-14 9 -12 8 2 52 -26 97 -62 45 -36 127 -88 181 -116 55 -28 97 -53 93 -57 -3
-4 8 -7 26 -7 18 0 49 -9 69 -19 202 -106 723 -93 982 25 73 33 160 86 160 97
0 5 -7 6 -15 3 -8 -3 -22 -9 -30 -12 -9 -4 -15 -1 -15 7 0 8 35 34 77 59 162
96 361 332 452 535 21 48 77 216 89 270 27 117 32 230 16 382 -15 152 -24 194
-64 303 -59 160 -127 280 -222 394 -79 94 -238 244 -271 255 -7 2 -25 14 -42
27 -42 31 -136 80 -176 92 -19 6 -49 15 -66 21 -18 5 -33 6 -33 2z m-7 -254
c-41 -61 -43 -79 -3 -35 17 18 30 36 30 40 0 5 3 7 8 6 4 -1 16 3 28 9 18 10
24 9 42 -12 23 -26 42 -33 42 -14 0 5 -4 7 -10 4 -16 -10 -11 1 7 16 9 8 14 9
10 2 -4 -6 -1 -13 8 -15 28 -6 -83 -158 -115 -158 -9 0 -45 -18 -81 -39 -35
-21 -66 -37 -68 -35 -5 5 30 135 46 166 7 15 10 35 7 45 -4 12 -3 14 3 5 7 -9
15 -4 32 19 13 17 21 33 18 35 -9 9 -77 -8 -77 -18 0 -6 7 -8 15 -4 11 4 13 1
6 -12 -9 -17 -15 -39 -51 -181 -17 -65 -26 -81 -72 -128 -29 -29 -56 -53 -60
-53 -12 0 -9 153 4 211 11 46 13 50 20 28 6 -20 7 -19 4 8 -1 18 0 31 2 28 3
-3 12 1 20 8 13 10 14 9 4 -10 -7 -12 -12 -30 -11 -40 0 -14 3 -12 11 7 31 76
52 104 86 115 18 5 21 10 12 20 -9 11 -5 16 22 23 18 6 47 10 64 9 l31 0 -34
-50z m201 -29 c-50 -57 -51 -61 -9 -38 22 12 46 27 53 32 8 7 22 5 45 -6 22
-12 25 -16 10 -13 -13 3 -23 1 -23 -3 0 -5 -9 -12 -20 -15 -11 -3 -20 -11 -20
-16 0 -6 5 -7 10 -4 20 12 112 11 128 -2 15 -11 11 -12 -25 -13 -23 0 -64 -4
-90 -9 -26 -5 -72 -12 -101 -16 -49 -5 -52 -4 -44 12 13 23 92 113 100 113 3
0 -3 -10 -14 -22z m139 -105 c-27 -5 -31 -23 -5 -23 14 0 15 -2 2 -10 -12 -8
-10 -10 10 -11 l25 -1 -25 -8 -25 -8 25 -2 c24 -3 24 -3 2 -7 -12 -2 -20 -9
-16 -14 10 -17 -87 -1 -134 23 -58 29 -65 48 -20 49 18 1 44 5 58 9 14 4 48 8
75 8 28 -1 40 -3 28 -5z m-607 -50 c-14 -50 -17 -85 -8 -79 12 7 22 -27 22
-80 0 -31 -7 -49 -29 -75 -33 -38 -32 -39 -50 57 -13 73 -14 97 -2 90 5 -3 12
6 15 20 6 24 45 84 54 84 2 0 1 -8 -2 -17z m371 -4 c6 -6 21 -12 34 -14 13 -2
31 -6 39 -8 57 -15 69 -20 67 -26 -5 -17 37 -61 59 -61 13 0 24 -4 24 -9 0 -6
-12 -6 -32 0 -39 11 -50 3 -14 -10 31 -12 33 -22 6 -46 -15 -14 -30 -17 -72
-12 l-53 6 40 -14 c34 -12 36 -14 14 -14 -70 -2 -284 95 -284 128 0 15 121 91
145 91 9 0 21 -5 27 -11z m231 -66 c-10 -2 -26 -2 -35 0 -10 3 -2 5 17 5 19 0
27 -2 18 -5z m-393 -62 c17 -7 51 -23 78 -37 26 -13 53 -24 60 -24 11 -1 29
-20 61 -64 10 -14 20 -17 40 -12 15 4 24 11 21 16 -3 6 1 10 10 10 25 0 9 -16
-55 -55 -53 -32 -66 -36 -103 -30 -77 12 -202 64 -250 104 -17 14 -15 17 28
61 47 48 59 52 110 31z m-381 -105 c-5 -14 -9 -15 -15 -4 -5 7 -9 22 -9 33 0
17 2 18 15 4 9 -9 13 -23 9 -33z m-239 14 c9 -15 27 -12 19 3 -4 6 7 -1 24
-17 17 -16 44 -56 61 -90 l31 -61 -22 -17 c-13 -10 -36 -23 -52 -29 -25 -11
-30 -10 -39 6 -17 31 -89 106 -132 138 -37 28 -31 31 20 11 20 -7 20 -7 0 12
-11 10 -16 16 -11 12 19 -15 28 -8 15 9 -10 11 -10 14 -2 9 7 -4 23 0 35 8 26
18 44 20 53 6z m145 -52 c7 -14 22 -36 36 -49 18 -17 21 -25 13 -36 -24 -29
-45 -13 -86 65 l-40 78 33 -15 c18 -9 38 -28 44 -43z m697 56 c-3 -3 -12 -4
-19 -1 -8 3 -5 6 6 6 11 1 17 -2 13 -5z m-567 -32 c0 -13 2 -14 9 -3 12 19 24
-3 16 -29 -8 -25 -17 -25 -39 -1 -12 13 -15 27 -11 40 7 24 25 19 25 -7z m607
22 c-3 -3 -12 -4 -19 -1 -8 3 -5 6 6 6 11 1 17 -2 13 -5z m-413 -30 c53 -8
126 -38 138 -57 13 -21 9 -28 -11 -17 -24 12 -34 13 -27 1 8 -12 -73 -6 -107
8 -35 14 -40 14 -32 1 4 -6 -2 -7 -14 -2 -11 4 -20 12 -21 17 -3 16 33 64 44
58 5 -3 19 -7 30 -9z m-234 -28 c0 -3 -4 -8 -10 -11 -5 -3 -10 -1 -10 4 0 6 5
11 10 11 6 0 10 -2 10 -4z m90 -10 c0 -17 -14 -29 -23 -20 -8 8 3 34 14 34 5
0 9 -6 9 -14z m-405 -36 c10 -8 33 -37 51 -65 l34 -50 -27 -6 c-52 -12 -101
-10 -106 5 -3 8 -27 24 -52 37 -26 13 -42 25 -36 27 6 2 9 8 5 13 -3 5 0 9 6
9 6 0 8 5 4 12 -5 8 -2 9 11 4 15 -5 16 -4 5 9 -11 13 -10 14 5 9 12 -5 16 -4
11 4 -10 17 68 10 89 -8z m352 -6 c-3 -3 -12 -4 -19 -1 -8 3 -5 6 6 6 11 1 17
-2 13 -5z m313 -24 c6 0 8 5 5 10 -4 6 5 5 19 -2 19 -8 32 -8 49 -1 16 8 28 8
38 1 11 -8 11 -9 -3 -4 -10 3 -20 1 -23 -4 -4 -6 -34 -10 -69 -10 -48 0 -63 3
-63 14 0 11 5 12 18 5 10 -5 23 -9 29 -9z m-336 -5 c-6 -16 -24 -21 -24 -7 0
11 11 22 21 22 5 0 6 -7 3 -15z m6 -40 c-7 -8 -17 -15 -23 -15 -5 0 -2 9 8 20
21 23 35 19 15 -5z m250 -25 c12 -16 18 -30 14 -30 -4 0 6 -15 23 -32 18 -18
34 -44 36 -58 3 -14 9 -36 14 -50 5 -14 9 -34 8 -45 0 -11 9 -34 21 -50 54
-77 62 -110 62 -280 0 -171 7 -254 22 -269 19 -19 30 56 34 234 1 74 7 144 11
154 7 16 5 18 -10 12 -18 -7 -18 -6 -1 13 20 22 15 73 -7 70 -41 -5 -47 1 -47
48 0 34 -7 55 -25 79 -27 36 -32 54 -12 54 6 0 24 -22 40 -48 15 -26 39 -65
52 -87 14 -22 31 -50 37 -62 6 -13 15 -23 20 -23 4 0 8 -12 8 -26 0 -14 -4
-23 -10 -19 -5 3 -10 -3 -10 -14 0 -11 4 -22 9 -25 5 -3 7 -33 4 -66 -4 -53
-15 -99 -51 -215 -10 -32 -9 -76 3 -166 5 -38 4 -58 -4 -63 -7 -5 -11 1 -11
13 0 27 -17 27 -25 0 -6 -17 -9 -18 -16 -8 -6 11 -9 10 -15 -5 -4 -12 -9 -14
-14 -6 -9 15 -43 -37 -36 -56 3 -8 -1 -14 -9 -14 -7 0 -20 -6 -27 -13 -7 -8
-24 -19 -37 -26 -12 -7 -20 -15 -17 -18 6 -7 -24 -32 -38 -33 -5 0 -1 9 9 20
16 17 16 20 2 20 -8 0 -23 -7 -31 -16 -9 -8 -22 -14 -29 -11 -6 2 -28 -4 -48
-14 -48 -24 -54 -15 -18 24 26 28 38 57 24 57 -10 0 -70 -73 -70 -84 0 -13
-49 -48 -92 -65 -18 -8 -33 -17 -33 -22 0 -5 -5 -9 -12 -9 -6 0 1 14 17 30 16
17 34 28 41 26 13 -5 68 49 77 77 11 30 -11 19 -44 -23 -20 -24 -41 -40 -54
-40 -12 0 -40 -20 -65 -45 -27 -27 -38 -45 -29 -45 8 0 20 5 27 12 7 7 12 9
12 6 0 -4 -42 -36 -93 -71 -98 -69 -140 -107 -102 -94 16 6 15 3 -5 -13 -14
-11 -31 -20 -37 -20 -7 0 -13 -4 -13 -10 0 -5 -6 -10 -12 -10 -7 0 -24 -9 -38
-20 -30 -23 -80 -27 -80 -6 0 8 4 18 10 21 6 3 7 -1 4 -9 -18 -47 43 12 75 72
28 53 -17 32 -50 -23 l-18 -29 6 37 c8 51 -10 47 -38 -8 -12 -25 -28 -45 -34
-45 -20 0 -123 67 -200 130 l-75 62 28 21 c38 30 74 68 68 74 -2 3 -20 -6 -38
-20 -43 -32 -78 -50 -78 -40 0 11 190 146 197 140 2 -3 -5 -15 -16 -26 -25
-25 -26 -31 -5 -31 9 0 31 15 48 33 25 24 37 49 49 102 9 39 25 88 36 110 l20
40 1 -42 c0 -53 20 -58 21 -5 0 20 3 30 6 22 14 -42 17 -43 22 -11 6 33 7 34
24 17 15 -15 17 -16 17 -1 0 10 7 15 18 13 13 -2 16 3 14 25 -2 20 1 27 9 22
8 -5 9 -1 4 14 -5 17 -3 20 10 14 15 -5 16 -1 10 26 -8 39 3 111 14 92 18 -28
110 31 98 63 -6 15 57 118 67 109 3 -3 6 2 6 11 0 10 15 39 34 65 18 25 37 56
40 68 6 18 11 21 25 13 10 -5 20 -7 23 -5 2 2 18 5 36 7 18 1 32 5 32 9 0 12
-51 49 -66 49 -8 0 -14 4 -14 10 0 10 27 3 48 -13 7 -5 15 -7 18 -4 10 9 -6
28 -33 38 -14 5 -23 12 -20 15 7 7 60 -20 76 -40 7 -8 21 -13 32 -11 23 5 24
-6 3 -76 -17 -58 -34 -85 -34 -54 0 15 -3 16 -12 7 -9 -9 -9 -18 1 -38 10 -24
10 -26 -2 -15 -12 9 -16 8 -21 -4 -3 -9 -19 -21 -36 -26 -16 -6 -31 -16 -32
-22 0 -7 -2 -23 -4 -37 -1 -14 -6 -37 -10 -53 -5 -23 -1 -33 30 -62 21 -19 43
-32 51 -29 24 10 115 -61 115 -89 0 -18 48 -67 66 -67 20 0 17 14 -7 36 -11
10 -25 27 -30 37 -10 17 -8 17 25 3 29 -12 38 -12 52 -1 17 12 16 15 -15 44
-18 17 -41 31 -50 32 -10 0 -11 2 -4 6 7 2 27 -5 43 -17 37 -26 44 -23 30 14
-9 25 -8 27 10 21 26 -8 26 11 0 27 -24 15 -26 61 -5 102 8 15 15 35 15 42 0
8 4 14 8 14 4 0 9 13 10 30 2 23 -1 28 -13 24 -20 -8 -16 16 5 33 10 9 11 12
3 13 -7 0 -13 7 -13 16 0 10 -6 13 -18 10 -15 -5 -20 2 -29 41 -9 36 -8 50 0
55 8 5 6 12 -8 23 -20 16 -20 16 0 12 17 -3 21 1 19 23 -1 15 -5 38 -9 51 -8
24 -35 57 -35 42 0 -10 -20 19 -20 30 0 5 5 5 10 2 6 -3 15 6 20 20 13 34 13
35 -7 36 -15 0 -15 2 2 9 17 7 17 9 3 9 -26 1 -23 51 3 51 4 0 17 -13 29 -30z
m-682 -1 c32 -29 19 -39 -46 -39 -49 1 -55 2 -40 14 10 7 14 17 10 21 -4 5 0
6 8 3 8 -4 24 -9 35 -13 19 -6 19 -6 3 8 -10 8 -15 17 -11 20 10 11 18 8 41
-14z m350 4 c19 -36 22 -81 7 -93 -12 -10 -15 -10 -16 1 0 8 -5 3 -10 -10 -14
-36 -20 -20 -8 23 6 20 7 51 4 67 -7 32 9 40 23 12z m144 -33 c-4 -42 -27 -56
-29 -18 -2 23 13 58 25 58 4 0 6 -18 4 -40z m-190 -34 c16 10 2 -38 -23 -81
-24 -40 -63 -68 -53 -38 5 16 3 15 -13 -2 -24 -26 -59 -46 -89 -51 -34 -6 -30
2 17 32 29 18 38 28 29 34 -9 6 -9 13 4 32 15 23 24 54 25 91 1 9 9 17 19 17
9 1 28 7 42 15 24 13 25 13 28 -21 2 -22 7 -32 14 -28z m260 27 c17 -29 23
-53 24 -99 0 -40 -4 -60 -11 -58 -6 3 -9 -12 -7 -40 3 -36 1 -44 -12 -42 -8 1
-19 6 -23 11 -4 4 -2 5 6 0 10 -6 12 -4 7 4 -6 9 -11 9 -24 -1 -9 -7 -13 -8
-9 -2 8 14 -16 37 -28 26 -5 -4 -5 -2 -1 5 3 6 2 14 -4 18 -5 3 -10 1 -10 -4
0 -6 -6 -11 -14 -11 -9 0 -12 7 -9 20 3 11 9 20 13 20 4 0 10 18 13 39 2 21
14 48 26 60 13 13 21 34 21 56 0 45 13 44 42 -2z m-160 20 c-6 -2 -9 -10 -6
-15 4 -7 2 -8 -5 -4 -13 9 -5 26 12 25 9 0 8 -2 -1 -6z m-216 -39 c-3 -9 -9
-28 -13 -42 -10 -42 -41 -81 -83 -102 -52 -27 -62 -26 -54 6 5 19 3 25 -4 20
-14 -8 -69 19 -63 31 2 4 18 18 34 30 17 13 34 29 38 35 5 7 34 18 66 24 82
16 86 16 79 -2z m249 -5 c-10 -15 -25 -10 -19 6 4 8 10 12 15 9 5 -3 7 -10 4
-15z m-443 -40 c-31 -28 -60 -40 -47 -19 3 6 0 10 -7 10 -8 0 -19 5 -25 11
-18 18 8 37 53 41 57 5 65 -8 26 -43z m802 5 c3 -8 2 -12 -4 -9 -6 3 -10 10
-10 16 0 14 7 11 14 -7z m54 -24 c29 -52 22 -52 -12 0 -14 22 -23 40 -19 40 5
0 18 -18 31 -40z m-688 -54 c0 -3 -4 -8 -10 -11 -5 -3 -10 -1 -10 4 0 6 5 11
10 11 6 0 10 -2 10 -4z m242 -43 c-11 -21 -26 -51 -33 -66 -7 -16 -18 -26 -26
-23 -7 3 -19 -1 -27 -9 -16 -17 -30 -20 -21 -6 7 13 -10 22 -27 16 -20 -8 -19
-34 1 -28 17 5 8 -4 -44 -43 -13 -10 -27 -24 -30 -32 -2 -7 13 2 35 19 22 18
52 34 67 35 21 2 24 1 13 -6 -12 -8 -12 -10 -1 -10 9 0 7 -6 -7 -19 -12 -10
-22 -23 -22 -28 0 -5 -26 -36 -58 -69 -33 -32 -62 -66 -65 -74 -3 -9 -6 -5 -6
10 -1 25 10 76 24 115 6 20 6 20 -9 1 -14 -18 -15 -15 -9 35 6 58 29 119 45
119 5 0 7 -4 4 -8 -9 -15 55 -12 77 3 12 8 18 15 13 15 -5 0 -2 7 5 17 13 15
11 15 -19 -1 -18 -9 -31 -20 -28 -24 2 -4 -4 -8 -14 -8 -15 0 -14 4 9 26 14
14 29 24 33 23 13 -6 36 9 41 27 3 12 19 21 48 27 24 5 45 8 47 7 2 -1 -5 -20
-16 -41z m35 -109 c-3 -3 -12 -4 -19 -1 -8 3 -5 6 6 6 11 1 17 -2 13 -5z m200
-126 c-3 -8 -6 -5 -6 6 -1 11 2 17 5 13 3 -3 4 -12 1 -19z m-63 -38 c5 -28 1
-40 -18 -62 -28 -33 -36 -35 -36 -7 0 20 39 114 44 107 2 -1 6 -19 10 -38z
m-88 -27 c-11 -11 -17 4 -9 23 7 18 8 18 11 1 2 -10 1 -21 -2 -24z m94 -87
c-5 -50 -26 -86 -49 -86 -10 0 -51 48 -51 60 0 3 17 16 39 28 21 12 44 29 51
37 7 8 13 15 14 15 1 0 -1 -24 -4 -54z m310 -400 c0 -2 -9 -6 -20 -9 -11 -3
-18 -1 -14 4 5 9 34 13 34 5z m-50 -16 c0 -5 -5 -10 -11 -10 -5 0 -7 5 -4 10
3 6 8 10 11 10 2 0 4 -4 4 -10z m-300 -185 c0 -4 -138 -74 -165 -83 -5 -2 7 8
27 22 20 14 41 26 45 26 4 0 19 9 33 20 23 18 60 27 60 15z m-185 -94 c-16
-15 -87 -52 -91 -48 -2 2 17 16 44 30 50 28 62 33 47 18z"/>
<path d="M2950 3010 c0 -5 9 -10 21 -10 11 0 17 5 14 10 -3 6 -13 10 -21 10
-8 0 -14 -4 -14 -10z"/>
<path d="M2910 2990 c20 -13 53 -13 45 0 -3 6 -18 10 -33 10 -21 0 -24 -2 -12
-10z"/>
<path d="M2491 2514 c0 -11 3 -14 6 -6 3 7 2 16 -1 19 -3 4 -6 -2 -5 -13z"/>
<path d="M2742 2439 c2 -6 7 -10 11 -10 4 1 16 1 27 1 11 0 20 5 20 10 0 6
-14 10 -31 10 -17 0 -29 -5 -27 -11z"/>
<path d="M2490 2092 c0 -5 10 -19 22 -32 20 -22 23 -22 26 -7 2 10 -2 24 -8
32 -13 16 -40 20 -40 7z"/>
<path d="M2570 2006 c0 -8 11 -23 24 -31 19 -13 28 -13 52 -3 l29 12 -29 4
c-16 2 -40 11 -53 19 -21 14 -23 14 -23 -1z"/>
<path d="M2841 2002 c-14 -25 -14 -42 -1 -42 15 0 29 35 20 49 -6 11 -10 9
-19 -7z"/>
<path d="M2593 1795 c-35 -35 -40 -45 -22 -45 13 0 69 58 69 71 0 16 -15 9
-47 -26z"/>
<path d="M2227 1603 c-46 -46 -56 -63 -38 -63 14 0 68 48 92 81 33 47 0 36
-54 -18z"/>
<path d="M2098 1509 c-18 -10 -63 -77 -56 -84 2 -3 24 15 47 39 40 41 45 65 9
45z"/>
<path d="M2278 2563 c7 -3 16 -2 19 1 4 3 -2 6 -13 5 -11 0 -14 -3 -6 -6z"/>
<path d="M3010 3732 c0 -4 15 -16 33 -25 17 -10 69 -40 115 -67 45 -27 82 -45
82 -40 0 9 -134 96 -185 120 -16 8 -33 16 -37 18 -5 2 -8 -1 -8 -6z"/>
<path d="M1588 3524 c-99 -74 -183 -174 -277 -324 -37 -60 -134 -260 -145
-300 -4 -14 -16 -56 -27 -95 -24 -84 -40 -375 -20 -375 7 0 11 30 12 88 1 48
3 96 5 107 2 11 10 63 18 115 27 178 64 262 234 525 62 95 166 209 257 282 69
55 21 36 -57 -23z"/>
<path d="M3325 3515 c91 -84 110 -84 24 0 -37 36 -73 65 -80 65 -7 0 18 -29
56 -65z"/>
<path d="M1544 3403 c-33 -32 -78 -83 -100 -113 -50 -68 -134 -217 -134 -237
0 -26 17 -5 56 73 27 52 73 115 147 197 59 66 107 124 107 129 0 18 -19 5 -76
-49z"/>
<path d="M3420 3445 c1 -14 57 -81 64 -74 3 3 -10 23 -29 44 -19 22 -35 36
-35 30z"/>
<path d="M3535 3290 c3 -5 8 -10 11 -10 2 0 4 5 4 10 0 6 -5 10 -11 10 -5 0
-7 -4 -4 -10z"/>
<path d="M3552 3265 c2 -5 27 -57 55 -115 29 -58 64 -148 78 -200 28 -101 53
-147 41 -75 -21 120 -98 308 -152 370 -14 17 -24 26 -22 20z"/>
<path d="M1241 2885 c-32 -99 -52 -218 -33 -200 5 6 15 41 22 80 6 38 22 100
36 139 28 80 27 76 14 76 -5 0 -23 -43 -39 -95z"/>
<path d="M1195 2657 c-4 -10 -5 -21 -1 -24 10 -10 18 4 13 24 -4 17 -4 17 -12
0z"/>
<path d="M3756 2525 c-9 -144 -38 -321 -71 -430 -65 -214 -244 -460 -457 -627
-43 -34 -76 -64 -73 -66 11 -11 144 91 236 180 164 158 289 369 333 561 44
192 66 408 48 472 -7 23 -11 2 -16 -90z"/>
<path d="M1121 2308 c-1 -21 4 -38 9 -38 12 0 12 27 0 55 -7 16 -9 13 -9 -17z"/>
<path d="M3761 3630 c6 -14 18 -32 25 -40 9 -10 10 -20 4 -30 -8 -12 -10 -11
-10 6 0 27 -19 44 -47 44 -13 0 -38 7 -54 16 -41 21 -49 11 -10 -12 17 -10 31
-22 31 -26 0 -4 9 -17 20 -28 l21 -21 -27 7 c-19 5 -25 4 -20 -5 4 -6 13 -11
21 -11 8 0 17 -5 21 -11 4 -8 -1 -9 -17 -5 -22 6 -22 6 -7 -7 10 -8 15 -17 11
-20 -3 -4 10 -14 30 -22 21 -8 37 -18 37 -21 0 -3 -6 -2 -12 1 -14 7 8 -12 39
-33 16 -11 16 -12 -7 -7 -24 6 -24 5 -6 -9 11 -9 25 -16 32 -16 7 0 16 -5 20
-12 5 -8 1 -9 -12 -5 -14 5 -13 2 6 -13 58 -47 66 -51 94 -47 27 4 31 0 59
-62 55 -122 79 -239 80 -396 1 -77 3 -128 5 -112 3 28 17 36 26 15 3 -7 3 0 1
15 -2 15 5 60 15 100 22 81 25 142 9 184 -13 34 -59 84 -71 77 -4 -3 -8 2 -8
11 0 10 -18 55 -39 101 -33 70 -37 85 -25 95 8 6 14 18 14 27 0 17 -17 75 -32
107 -8 18 -8 18 -4 -3 2 -12 0 -20 -5 -16 -5 3 -9 11 -9 17 -1 7 -7 26 -16 42
-11 22 -13 24 -10 8 6 -31 -1 -29 -19 7 -9 18 -21 28 -27 24 -6 -4 -8 -3 -5 3
3 5 -6 22 -19 39 -19 22 -24 24 -19 9 4 -15 -1 -12 -20 10 -14 17 -22 22 -19
13 9 -26 -3 -22 -32 10 -25 27 -25 27 -13 2z m-17 -56 c7 -17 -6 -18 -22 -2
-7 7 -12 15 -12 20 0 12 28 -2 34 -18z m87 -41 c-10 -17 -10 -16 -11 3 0 23
13 41 18 25 2 -6 -1 -18 -7 -28z m-66 -3 c3 -5 1 -10 -4 -10 -6 0 -11 5 -11
10 0 6 2 10 4 10 3 0 8 -4 11 -10z m110 -30 c-4 -12 -9 -19 -12 -17 -3 3 -2
15 2 27 4 12 9 19 12 17 3 -3 2 -15 -2 -27z m-80 -10 c3 -5 2 -10 -4 -10 -5 0
-13 5 -16 10 -3 6 -2 10 4 10 5 0 13 -4 16 -10z m116 -41 c-6 -16 -10 -18 -10
-7 -1 22 12 55 16 42 2 -6 -1 -22 -6 -35z m-76 1 c8 -13 -5 -13 -25 0 -13 8
-13 10 2 10 9 0 20 -4 23 -10z m122 -35 c-4 -8 -11 -15 -17 -15 -7 0 -7 6 0
21 13 23 26 19 17 -6z m-87 -5 c13 -8 13 -10 -2 -10 -9 0 -20 5 -23 10 -8 13
5 13 25 0z m116 -46 c-4 -9 -9 -15 -11 -12 -3 3 -3 13 1 22 4 9 9 15 11 12 3
-3 3 -13 -1 -22z m-86 -6 c0 -12 -1 -19 -3 -17 -1 2 -9 12 -16 22 -12 14 -11
17 3 17 10 0 16 -8 16 -22z m35 -38 c3 -5 -1 -10 -9 -10 -8 0 -18 5 -21 10 -3
6 1 10 9 10 8 0 18 -4 21 -10z m186 -292 c8 -31 7 -54 -4 -101 l-15 -62 -1 45
c-1 45 -15 143 -26 183 -6 21 -5 21 14 -1 12 -13 26 -42 32 -64z"/>
<path d="M1152 3575 c-24 -30 -36 -32 -27 -5 11 34 -3 22 -25 -20 -11 -22 -23
-40 -26 -40 -2 0 0 9 6 21 7 11 9 23 6 26 -3 3 -11 -6 -17 -21 -7 -14 -16 -26
-20 -26 -5 0 -18 -18 -29 -40 -20 -39 -38 -56 -26 -24 3 8 2 12 -4 9 -5 -3
-15 -25 -21 -48 -10 -35 -13 -39 -19 -22 -7 18 -8 17 -15 -10 -4 -16 -11 -44
-17 -62 -9 -33 2 -73 22 -73 5 0 -4 -27 -19 -61 -16 -33 -35 -80 -42 -105 -7
-24 -19 -44 -25 -44 -6 0 -24 -18 -39 -41 -39 -56 -44 -123 -15 -219 12 -41
23 -91 24 -111 1 -29 4 -35 14 -27 9 8 12 4 12 -16 0 -15 4 -25 8 -22 5 3 5
36 0 73 -18 141 11 343 71 492 25 63 28 66 57 63 20 -2 38 4 56 20 15 13 37
31 50 41 l23 18 -25 -11 -25 -11 21 18 c12 10 30 24 40 31 17 11 17 12 -6 6
-20 -5 -22 -4 -13 6 6 7 21 17 34 24 12 6 20 15 18 19 -2 5 7 15 21 22 14 7
25 17 24 22 -1 4 6 14 15 21 14 11 14 12 -4 11 -11 -1 -29 -1 -39 0 -17 1 -18
3 -7 14 11 9 14 9 18 0 4 -10 11 -9 34 2 36 19 37 27 3 19 -27 -7 -27 -7 -8
15 10 12 33 36 49 53 23 23 25 29 10 23 -11 -4 -33 -12 -50 -18 -16 -5 -38
-14 -47 -18 -21 -11 -23 2 -8 32 15 27 5 24 -18 -6z m65 -50 c-4 -8 -11 -15
-17 -15 -7 0 -7 6 0 21 13 23 26 19 17 -6z m-67 -15 c0 -11 -2 -20 -4 -20 -2
0 -6 9 -9 20 -3 11 -1 20 4 20 5 0 9 -9 9 -20z m-40 -33 c0 -18 -2 -19 -10 -7
-13 20 -13 43 0 35 6 -3 10 -16 10 -28z m-40 -47 c0 -13 -1 -13 -10 0 -5 8
-10 22 -10 30 0 13 1 13 10 0 5 -8 10 -22 10 -30z m95 0 c-3 -5 -13 -10 -21
-10 -8 0 -12 5 -9 10 3 6 13 10 21 10 8 0 12 -4 9 -10z m-135 -50 c0 -13 -1
-13 -10 0 -5 8 -10 22 -10 30 0 13 1 13 10 0 5 -8 10 -22 10 -30z m105 10 c-3
-5 -16 -10 -28 -10 -18 0 -19 2 -7 10 20 13 43 13 35 0z m-145 -46 c0 -8 -4
-12 -10 -9 -5 3 -10 13 -10 21 0 8 5 12 10 9 6 -3 10 -13 10 -21z m100 1 c-7
-8 -20 -15 -28 -15 -13 0 -12 3 4 15 25 19 40 19 24 0z m-131 -74 c-1 -13 -2
-12 -6 2 -2 9 -8 17 -12 17 -4 0 -8 7 -8 16 0 14 2 14 14 -2 7 -10 12 -25 12
-33z m97 24 c-11 -8 -25 -15 -30 -15 -6 0 -2 7 8 15 11 8 25 15 30 15 6 0 2
-7 -8 -15z m-30 -50 c-25 -19 -41 -19 -24 0 7 8 20 14 28 14 11 0 10 -3 -4
-14z m-175 -291 c-5 -32 -12 -83 -15 -113 -2 -29 -7 -55 -10 -58 -7 -7 -20 65
-19 109 0 33 40 134 49 125 2 -2 -1 -30 -5 -63z"/>
<path d="M1090 1660 c-24 -24 -25 -51 -4 -92 15 -28 15 -30 0 -25 -17 7 -23
-8 -7 -17 14 -9 101 6 95 15 -3 5 -19 9 -35 9 -22 0 -32 6 -39 26 -6 14 -10
30 -10 35 0 18 40 49 64 49 29 0 69 -46 63 -72 -4 -13 1 -18 14 -18 23 0 23 3
4 40 -34 65 -105 90 -145 50z"/>
<path d="M3697 1625 c-21 -43 -21 -46 -2 -39 8 3 38 -7 68 -23 l54 -29 16 29
c19 31 22 57 8 57 -5 0 -11 -14 -15 -30 -6 -31 -6 -31 -36 -15 -26 14 -29 18
-20 36 6 11 9 25 7 32 -2 7 -10 0 -17 -15 -15 -32 -22 -34 -39 -14 -8 10 -9
16 -1 21 12 7 14 25 2 25 -5 0 -16 -16 -25 -35z"/>
<path d="M3660 1561 c0 -6 16 -19 35 -28 19 -9 35 -20 35 -24 0 -4 -26 -13
-57 -20 -56 -12 -99 -28 -77 -29 6 0 35 -18 64 -40 40 -29 56 -37 62 -28 12
19 10 28 -5 22 -7 -2 -28 7 -46 20 l-33 25 38 10 c22 5 56 13 77 17 20 3 37 9
37 13 0 3 -26 20 -57 36 -72 38 -73 39 -73 26z"/>
<path d="M1136 1486 c3 -7 23 -12 51 -12 61 1 74 -19 48 -68 l-20 -36 25 -25
c14 -13 31 -31 38 -40 31 -37 74 -8 70 46 -2 25 1 34 15 37 10 2 17 -3 17 -12
0 -9 7 -16 15 -16 19 0 8 28 -17 41 -10 5 -28 7 -38 4 -16 -5 -20 -15 -20 -49
0 -23 -3 -45 -6 -49 -11 -11 -34 5 -34 24 0 10 -7 19 -15 19 -23 0 -18 32 15
92 l29 56 -89 0 c-66 0 -88 -3 -84 -12z m134 -16 c0 -5 -2 -10 -4 -10 -3 0 -8
5 -11 10 -3 6 -1 10 4 10 6 0 11 -4 11 -10z"/>
<path d="M3560 1423 c0 -5 18 -20 41 -34 l41 -26 -73 -7 c-40 -3 -75 -8 -77
-10 -4 -4 84 -89 98 -94 4 -1 13 5 21 15 8 9 9 14 4 11 -6 -4 -27 6 -48 22
l-38 28 68 7 c99 9 102 12 51 44 -25 16 -49 34 -52 40 -8 12 -36 15 -36 4z"/>
<path d="M1424 1331 c22 -24 18 -31 -40 -72 -30 -22 -40 -35 -32 -40 7 -5 29
7 55 32 44 40 57 46 68 29 3 -5 11 -10 18 -10 6 0 -7 18 -28 40 -39 40 -74 58
-41 21z"/>
<path d="M3434 1289 l-21 -20 51 -49 c45 -43 53 -47 67 -34 8 8 21 14 27 14 7
0 12 6 12 13 0 25 -12 26 -30 4 -18 -22 -18 -22 -39 -3 -19 17 -20 21 -6 36
22 24 18 36 -5 15 -16 -15 -22 -16 -35 -5 -14 12 -14 15 1 31 23 26 3 24 -22
-2z"/>
<path d="M1468 1215 c-27 -29 -48 -55 -48 -58 0 -14 25 -6 47 15 l23 21 0 -45
c0 -34 5 -50 22 -64 21 -19 21 -19 14 1 -5 11 -11 39 -13 63 -5 40 -4 42 21
42 33 0 35 28 4 56 l-23 20 -47 -51z m72 0 c0 -8 -7 -15 -15 -15 -16 0 -20 12
-8 23 11 12 23 8 23 -8z"/>
<path d="M3380 1240 c0 -13 84 -110 96 -110 17 0 -4 33 -46 75 -28 27 -50 43
-50 35z"/>
<path d="M3310 1182 c0 -8 17 -35 37 -60 21 -26 38 -48 39 -50 1 -1 13 2 27 9
24 11 45 49 26 49 -5 0 -9 -4 -9 -9 0 -5 -8 -12 -17 -15 -13 -5 -29 6 -60 41
-23 26 -42 42 -43 35z"/>
<path d="M1561 1134 c-25 -32 -25 -37 -6 -73 16 -33 33 -41 79 -41 54 0 86 52
61 99 -16 33 -33 41 -80 41 -24 0 -39 -7 -54 -26z m103 0 c22 -21 20 -60 -4
-84 -24 -24 -38 -25 -68 -4 -28 19 -29 57 -2 84 24 24 53 26 74 4z"/>
<path d="M3266 1151 c-4 -5 9 -30 28 -55 19 -25 36 -51 39 -58 3 -10 7 -10 17
-1 12 11 1 29 -71 116 -4 5 -10 4 -13 -2z"/>
<path d="M3191 1104 c-74 -62 -3 -174 75 -119 12 8 24 11 28 8 3 -3 6 -1 6 5
0 5 3 19 7 29 5 16 4 16 -18 -3 -13 -12 -33 -24 -43 -28 -23 -8 -61 16 -69 43
-6 25 20 61 47 65 11 1 22 8 24 14 7 21 -25 13 -57 -14z"/>
<path d="M1740 1090 c0 -6 -16 -34 -35 -62 -25 -38 -31 -54 -22 -60 17 -11 29
-10 22 2 -4 6 4 27 16 47 l23 36 17 -63 c17 -59 26 -79 32 -69 23 40 58 121
53 126 -8 8 -9 6 -34 -42 l-20 -39 -17 62 c-16 56 -35 90 -35 62z"/>
<path d="M3097 1053 c-3 -5 11 -37 29 -71 20 -38 36 -58 39 -50 5 12 -50 128
-60 128 -2 0 -6 -3 -8 -7z"/>
<path d="M3026 1021 c-27 -30 -16 -53 29 -65 44 -13 54 -39 18 -44 -13 -2 -23
-8 -23 -14 0 -13 52 -1 62 15 18 28 7 46 -34 60 -41 13 -62 45 -25 39 10 -2
17 3 17 13 0 21 -23 19 -44 -4z"/>
<path d="M1860 990 c-11 -11 -20 -33 -20 -50 0 -67 97 -97 139 -44 27 35 26
59 -4 89 -31 32 -86 34 -115 5z m88 -6 c45 -31 11 -114 -41 -100 -47 11 -58
64 -21 101 19 19 34 19 62 -1z"/>
<path d="M2040 959 c0 -7 -14 -34 -31 -62 -24 -39 -28 -52 -17 -58 20 -13 28
-11 22 5 -3 8 3 29 12 48 l18 33 9 -50 c5 -27 11 -52 13 -54 2 -2 20 13 39 35
l34 39 1 -47 c0 -43 2 -48 23 -47 12 0 16 3 10 6 -9 3 -13 27 -13 71 l0 67
-39 -45 c-42 -49 -42 -49 -57 33 -6 33 -24 53 -24 26z"/>
<path d="M2825 945 c-49 -48 -20 -116 49 -118 30 -1 44 5 62 27 13 15 24 36
24 47 0 31 -44 69 -80 69 -19 0 -40 -9 -55 -25z m68 4 c29 -16 37 -28 37 -61
0 -26 -23 -48 -50 -48 -16 0 -60 47 -60 65 0 14 34 55 46 55 3 0 15 -5 27 -11z"/>
<path d="M2716 932 c-4 -7 -2 -29 3 -49 6 -21 11 -50 11 -65 0 -24 3 -27 28
-25 32 4 52 14 52 27 0 6 -11 5 -26 0 -14 -6 -27 -10 -29 -10 -1 0 -6 21 -10
46 -9 63 -20 91 -29 76z"/>
<path d="M2207 883 c-4 -27 -9 -58 -13 -70 -5 -17 -2 -23 8 -23 11 0 17 16 22
54 3 30 9 61 12 70 4 10 1 16 -9 16 -10 0 -16 -15 -20 -47z"/>
<path d="M2988 923 c-19 -5 -25 -23 -9 -23 17 0 41 12 41 21 0 9 -4 10 -32 2z"/>
<path d="M2258 880 c2 -22 -1 -53 -6 -69 -10 -28 -9 -29 21 -34 20 -3 38 0 47
9 13 13 10 14 -19 8 -32 -7 -34 -6 -28 17 4 13 7 27 7 32 0 4 11 7 25 7 14 0
25 5 25 10 0 6 -11 10 -25 10 -18 0 -23 4 -19 15 4 8 15 15 25 15 10 0 19 5
19 10 0 6 -17 10 -38 10 l-38 0 4 -40z"/>
<path d="M2610 906 c0 -7 -13 -40 -30 -72 -16 -32 -30 -60 -30 -61 0 -2 9 -3
21 -3 12 0 19 5 16 13 -7 19 22 67 41 67 9 0 27 -16 39 -35 15 -22 28 -32 37
-29 11 4 4 19 -30 60 -24 30 -44 59 -44 64 0 6 -4 10 -10 10 -5 0 -10 -6 -10
-14z m20 -36 c0 -5 -5 -10 -11 -10 -5 0 -7 5 -4 10 3 6 8 10 11 10 2 0 4 -4 4
-10z"/>
<path d="M2408 840 c-2 -51 0 -70 10 -70 8 0 12 21 12 70 0 91 -17 91 -22 0z"/>
<path d="M2450 900 c0 -6 11 -8 26 -4 l26 7 -4 -67 c-2 -48 0 -66 10 -66 8 0
12 20 12 66 0 61 1 66 20 61 11 -3 20 -1 20 4 0 5 -25 9 -55 9 -31 0 -55 -5
-55 -10z"/>
</g>
</svg>
